<?xml version="1.0" standalone="no"?>
<!DOCTYPE svg PUBLIC "-//W3C//DTD SVG 20010904//EN"
 "http://www.w3.org/TR/2001/REC-SVG-20010904/DTD/svg10.dtd">
<svg version="1.0" xmlns="http://www.w3.org/2000/svg"
 width="610.000000pt" height="1280.000000pt" viewBox="0 0 610.000000 1280.000000"
 preserveAspectRatio="xMidYMid meet">
<metadata>
Created by potrace 1.15, written by Peter Selinger 2001-2017
</metadata>
<g transform="translate(0.000000,1280.000000) scale(0.100000,-0.100000)"
fill="#000000" stroke="none">
<path d="M2501 12513 c-10 -226 -10 -426 0 -931 6 -354 10 -645 8 -647 -5 -4
-262 25 -268 30 -3 4 62 93 127 173 19 23 32 42 29 42 -10 0 -221 -122 -239
-138 -27 -23 -22 -9 26 70 25 40 43 74 41 77 -2 2 -22 -11 -45 -29 -23 -18
-42 -31 -44 -29 -2 2 17 57 41 123 24 65 42 120 41 122 -2 1 -42 -44 -88 -101
-46 -57 -85 -103 -86 -102 -3 3 43 274 55 327 5 24 9 46 7 47 -4 5 -134 -202
-163 -261 l-30 -59 -60 144 c-33 79 -66 160 -73 179 -7 19 -16 39 -20 43 -15
18 -20 -238 -6 -318 18 -98 24 -116 70 -184 30 -45 36 -62 34 -95 -4 -40 -4
-41 -15 -15 -17 39 -69 95 -111 120 -20 12 -68 50 -107 83 -38 34 -66 53 -62
44 3 -10 4 -18 1 -18 -3 0 -46 25 -96 56 -49 30 -91 54 -93 52 -5 -5 169 -215
228 -276 29 -30 65 -60 81 -69 16 -8 39 -27 51 -41 l23 -27 -67 -31 c-62 -29
-345 -204 -339 -209 4 -4 123 27 242 61 119 34 159 56 187 101 12 21 24 40 25
41 1 2 16 1 33 -3 l30 -6 -21 -47 c-12 -27 -23 -79 -26 -122 -5 -73 -4 -75 14
-59 35 29 48 34 41 14 -4 -9 -14 -52 -23 -94 -8 -42 -27 -100 -41 -130 -17
-36 -28 -82 -33 -138 -5 -57 -13 -89 -25 -103 -24 -26 -35 -17 -35 28 0 47
-17 103 -71 233 l-44 104 -3 -110 c-4 -136 6 -172 63 -226 25 -24 42 -45 40
-48 -3 -2 6 -16 19 -30 l25 -26 -20 -80 c-11 -44 -24 -96 -29 -115 -5 -19 -19
-100 -31 -180 -25 -164 -35 -202 -49 -180 -7 10 -10 11 -10 3 0 -13 -79 -58
-87 -49 -3 2 6 19 19 36 22 31 23 36 20 228 -3 278 -6 284 -65 115 -66 -191
-71 -232 -41 -307 13 -33 24 -61 24 -62 0 -9 -39 13 -67 37 -18 15 -76 49
-129 76 l-96 47 55 16 c31 8 58 18 62 21 3 4 -54 10 -127 14 -73 4 -140 11
-148 15 -18 9 -123 -10 -158 -29 -38 -20 -57 -1 -53 56 2 30 8 51 18 57 54 30
432 386 411 386 -18 0 -177 -55 -222 -76 -81 -38 -147 -94 -174 -146 -14 -27
-30 -48 -37 -48 -17 0 -29 113 -16 153 12 39 37 180 46 262 8 73 3 69 -62 -45
-71 -123 -88 -173 -88 -257 0 -72 -8 -92 -20 -54 -3 11 -22 34 -41 51 -34 29
-238 137 -394 206 l-75 34 127 -124 c177 -174 192 -183 347 -212 22 -5 23 -6
5 -19 -11 -8 -25 -15 -33 -15 -25 0 -147 -68 -234 -128 -153 -108 -177 -126
-174 -128 3 -4 178 52 272 87 99 37 140 68 167 126 12 25 30 48 40 51 10 2 18
9 18 16 1 11 34 56 43 56 2 0 -6 -48 -18 -107 -18 -83 -28 -111 -44 -121 -12
-8 -21 -21 -21 -30 0 -8 -10 -29 -23 -46 -12 -17 -28 -44 -35 -60 -16 -36 -34
-237 -30 -326 l3 -65 38 90 c63 147 82 255 63 343 -5 21 -4 32 3 32 6 0 11 -5
11 -11 0 -19 50 -76 91 -105 22 -15 49 -44 59 -63 10 -20 43 -64 74 -99 31
-34 56 -68 56 -74 0 -6 3 -8 7 -4 4 3 36 -22 71 -56 l65 -63 -48 90 c-26 50
-58 105 -72 123 -13 17 -20 32 -16 32 4 0 53 -25 107 -55 112 -62 111 -61 -32
86 l-94 97 33 10 c19 6 53 16 77 22 l44 11 76 -59 c106 -81 130 -92 205 -92
34 0 67 -4 73 -10 5 -5 32 -12 58 -15 27 -2 50 -6 52 -8 2 -2 -1 -20 -7 -40
-10 -36 -32 -49 -42 -24 -3 7 -6 5 -6 -5 -1 -12 -19 -22 -58 -34 -75 -23 -87
-34 -37 -35 31 0 35 -2 19 -9 -15 -6 -6 -9 33 -9 l54 -1 -9 -32 c-4 -18 -8
-62 -8 -98 0 -53 4 -71 24 -97 17 -22 22 -39 17 -56 -3 -15 -1 -27 5 -29 9 -3
8 -35 0 -123 -13 -130 -30 -607 -31 -853 0 -150 0 -153 -21 -150 -19 3 -28 28
-76 218 -30 118 -56 222 -58 230 -1 8 -5 22 -9 30 -19 45 -64 205 -60 212 3 4
0 8 -5 8 -6 0 -11 5 -11 10 0 6 17 10 38 11 l37 1 -45 19 -46 20 -47 128 c-26
71 -47 133 -47 138 0 6 10 15 23 22 21 11 21 11 -7 7 -31 -4 -22 -20 -106 182
-23 56 -44 101 -46 99 -2 -1 15 -47 37 -101 22 -54 39 -99 37 -101 -2 -2 -47
-6 -101 -10 l-98 -7 6 64 6 63 -25 -39 c-25 -40 -25 -40 -34 -15 -10 24 -107
158 -157 214 l-26 30 6 -40 c12 -71 58 -198 91 -246 l32 -48 -31 -7 c-19 -4
-53 -28 -85 -60 -29 -30 -57 -54 -62 -54 -4 0 -17 15 -29 33 -28 46 -186 195
-196 185 -12 -11 57 -176 94 -224 l38 -50 -31 -19 c-17 -10 -62 -35 -101 -56
l-70 -38 -28 26 -27 27 11 -32 c6 -18 10 -34 8 -36 -2 -1 -66 -31 -141 -66
-76 -35 -137 -65 -135 -66 1 -1 68 10 149 25 82 15 152 25 157 22 5 -3 25 -39
44 -80 28 -58 33 -79 26 -97 -5 -15 -5 -24 1 -24 6 0 10 5 10 10 0 6 4 10 8
10 10 0 82 -96 82 -110 0 -5 6 -10 13 -10 8 0 24 -11 36 -24 12 -13 50 -36 84
-50 34 -15 69 -31 77 -35 14 -8 37 -107 27 -118 -3 -2 -85 21 -182 52 -97 31
-179 55 -181 52 -2 -2 48 -43 111 -90 64 -48 111 -87 106 -87 -6 0 -64 11
-128 25 -64 13 -118 23 -120 21 -2 -1 69 -38 158 -81 167 -80 238 -100 291
-81 15 6 31 6 35 2 4 -5 2 -11 -5 -13 -24 -9 -128 -97 -220 -187 l-93 -91 -20
25 -20 25 6 -42 c4 -24 4 -43 1 -43 -3 0 -22 29 -42 66 -20 36 -38 63 -40 61
-5 -5 22 -194 37 -262 7 -27 26 -84 44 -126 l32 -75 -81 -12 c-109 -16 -426
-75 -423 -79 6 -5 215 -33 314 -42 56 -4 124 -5 150 -1 26 5 49 7 50 6 1 -1
-16 -46 -37 -101 -22 -54 -40 -103 -40 -109 0 -6 16 8 36 32 20 23 40 42 45
42 6 0 7 -5 4 -11 -9 -14 -95 -293 -91 -296 3 -4 141 191 186 264 29 46 35 66
35 110 0 55 3 61 23 41 14 -14 15 -9 12 46 -2 39 -2 40 22 24 19 -13 23 -25
24 -65 2 -56 10 -76 54 -123 29 -31 35 -58 12 -53 -6 2 -9 -3 -7 -10 3 -7 -26
-36 -65 -66 -38 -29 -70 -55 -70 -56 0 -5 64 22 114 47 21 11 42 16 46 11 4
-4 -45 -90 -110 -190 -66 -101 -115 -183 -111 -183 5 0 21 16 36 36 15 19 29
34 31 32 1 -2 -7 -33 -20 -68 -44 -121 -44 -121 24 -55 34 33 86 90 117 128
30 37 58 67 62 67 17 0 41 -75 41 -128 0 -40 3 -53 10 -42 5 8 10 25 10 38 0
34 11 27 58 -37 30 -42 65 -118 119 -258 69 -181 76 -205 77 -275 1 -64 5 -82
25 -108 13 -18 25 -44 26 -59 2 -14 10 -44 20 -66 l17 -39 -28 -23 c-16 -13
-75 -56 -131 -95 -56 -40 -100 -74 -99 -75 5 -5 202 64 243 85 27 14 44 18 48
11 4 -6 18 -52 30 -102 13 -51 30 -110 38 -132 l14 -40 10 45 10 45 66 -205
c36 -113 71 -225 76 -250 6 -25 15 -328 21 -685 6 -352 15 -728 20 -835 41
-821 42 -834 71 -1890 7 -234 13 -656 13 -937 l1 -513 68 0 67 0 0 303 c0 416
-54 1889 -90 2482 -50 810 -64 1153 -80 1930 -12 591 -13 775 -2 775 4 0 21
-9 38 -19 17 -11 87 -42 155 -69 68 -28 151 -62 184 -76 l60 -26 -60 56 c-137
129 -272 222 -355 244 -40 11 -55 30 -22 30 9 0 87 -7 172 -15 85 -7 156 -13
157 -11 2 2 -27 16 -64 33 -58 26 -202 130 -211 152 -1 4 20 18 48 31 47 22
70 47 33 36 -10 -2 -48 -8 -85 -12 l-68 -6 0 53 c0 30 -3 64 -6 76 -5 16 11
40 74 110 l79 88 119 42 c65 22 156 55 201 72 l82 30 21 -26 20 -26 -6 30 c-6
29 -3 32 50 58 31 15 74 45 97 67 22 22 43 38 45 35 2 -2 -6 -26 -18 -53 -31
-67 -30 -202 1 -334 13 -52 26 -99 30 -103 8 -8 33 108 51 233 6 41 12 75 14
77 3 4 66 -154 100 -253 17 -47 27 -104 31 -165 3 -52 10 -159 16 -239 18
-254 19 -238 -22 -194 -44 47 -76 57 -179 58 -109 0 -370 -24 -370 -34 0 -8
292 -78 385 -91 39 -6 99 -9 134 -7 95 5 94 -11 -9 -82 -43 -30 -57 -50 -100
-135 -48 -95 -174 -414 -167 -422 4 -4 92 101 247 296 63 80 116 138 117 130
1 -8 7 -79 12 -159 6 -80 18 -221 26 -315 8 -93 17 -199 20 -235 3 -36 10
-108 15 -160 5 -52 12 -129 15 -171 l7 -77 -34 -25 c-18 -13 -66 -37 -105 -52
-40 -16 -73 -30 -73 -33 0 -2 48 -3 108 -1 l107 4 3 -42 c3 -40 1 -43 -35 -61
-65 -34 -330 -239 -320 -248 2 -2 32 8 67 22 116 47 282 104 290 99 4 -3 11
-80 14 -172 4 -93 9 -213 12 -268 7 -121 19 -407 34 -763 9 -219 8 -297 -5
-475 -17 -227 -87 -942 -135 -1377 -30 -271 -60 -571 -60 -602 0 -15 10 -18
63 -18 l63 0 12 153 c11 134 37 417 87 926 9 85 18 157 21 160 3 4 3 -274 -1
-617 l-8 -622 304 0 304 0 -2 152 c-10 588 -25 1093 -38 1268 -8 113 -19 268
-25 345 -15 209 -28 382 -40 555 -6 85 -15 207 -20 270 -5 63 -14 178 -20 255
-10 136 -14 183 -45 559 -15 175 -15 181 6 258 12 43 25 81 30 84 5 3 24 -3
42 -14 51 -31 286 -126 293 -119 2 2 -62 54 -142 117 -156 125 -158 127 -117
190 9 13 17 37 19 53 1 16 11 41 23 56 36 44 45 73 47 151 1 56 8 88 25 124
24 48 25 48 159 105 174 74 187 81 238 132 47 47 49 47 26 -7 -26 -61 -22
-164 11 -283 19 -71 31 -98 36 -88 5 8 14 69 21 135 6 67 15 119 19 116 7 -4
130 -290 174 -404 30 -79 72 -204 79 -235 7 -31 2 -28 -31 22 -7 10 -1 -8 13
-39 15 -34 24 -71 22 -90 l-3 -33 -19 21 c-10 12 -26 20 -36 17 -10 -3 -32 8
-51 25 -52 45 -72 52 -146 52 -60 0 -331 -35 -340 -44 -2 -2 61 -16 139 -31
100 -20 179 -29 263 -31 66 -1 121 -2 123 -3 2 -1 -25 -24 -59 -52 -49 -42
-68 -66 -95 -124 -30 -65 -137 -375 -131 -381 5 -5 275 373 296 413 12 24 24
63 28 88 7 53 13 51 29 -11 11 -43 10 -48 -14 -76 -24 -28 -24 -30 -5 -20 12
7 24 12 28 12 3 0 6 -37 5 -82 -1 -77 2 -129 15 -281 3 -38 2 -56 -5 -52 -12
8 -13 -7 -1 -21 11 -12 36 -529 26 -544 -4 -7 -44 -30 -89 -51 l-81 -38 93 6
92 6 0 -36 c0 -33 -6 -41 -72 -91 -40 -31 -104 -85 -143 -121 -68 -64 -69 -65
-30 -49 196 82 235 97 241 92 3 -4 10 -107 15 -230 4 -123 11 -275 14 -338 23
-499 27 -738 21 -1177 l-7 -483 336 0 336 0 -6 373 c-8 459 -18 677 -55 1177
-36 489 -50 713 -45 718 3 4 109 -26 162 -45 10 -3 -25 25 -77 63 l-95 70 -9
99 c-7 83 -5 108 8 146 10 26 16 71 15 105 -2 52 8 83 74 257 54 140 89 215
119 257 24 33 46 60 51 60 4 0 7 -13 7 -29 0 -17 5 -33 10 -36 6 -4 10 15 10
49 0 50 24 126 40 126 3 0 31 -30 62 -68 31 -37 85 -94 118 -127 68 -65 68
-66 25 53 -12 34 -21 62 -19 62 3 0 18 -15 34 -32 54 -60 31 -15 -84 162 -63
96 -111 179 -106 183 4 5 31 -3 59 -18 57 -28 101 -46 101 -41 0 2 -32 28 -70
57 -41 31 -68 59 -66 66 3 7 0 12 -6 10 -6 -1 -13 4 -16 12 -3 8 0 11 7 7 7
-4 11 1 11 13 0 11 8 26 18 33 29 21 44 57 46 111 1 40 5 52 24 65 24 16 24
15 22 -24 -3 -55 -2 -60 12 -46 20 20 23 14 23 -41 0 -45 7 -64 39 -118 44
-72 178 -260 183 -256 3 3 -84 284 -93 298 -14 23 12 5 48 -33 46 -51 45 -42
-8 91 -19 47 -33 86 -31 87 1 1 22 -2 47 -6 26 -5 89 -5 151 1 114 10 309 36
315 41 4 4 -464 89 -488 88 -14 0 -11 12 16 78 18 42 38 100 45 127 15 68 42
257 37 262 -2 2 -20 -25 -40 -61 -20 -37 -39 -66 -42 -66 -3 0 -3 19 1 42 5
40 5 42 -10 24 -8 -11 -15 -25 -15 -30 0 -6 -44 33 -97 85 -54 53 -128 119
-165 147 -69 52 -75 73 -13 51 29 -11 43 -10 92 5 65 21 362 169 323 161 -14
-3 -70 -14 -124 -25 -55 -11 -101 -19 -103 -17 -2 2 36 34 84 70 49 37 99 76
113 87 l25 21 -25 -6 c-33 -9 -166 -51 -258 -81 -40 -13 -77 -24 -83 -24 -8 0
-9 15 -4 48 8 55 21 82 38 82 22 0 132 57 151 79 11 11 24 21 30 21 6 1 28 28
50 60 36 56 56 74 56 50 0 -5 4 -10 10 -10 6 0 6 9 1 23 -7 17 0 41 27 100 43
91 29 87 217 53 71 -14 131 -23 132 -22 1 1 -59 31 -135 66 -75 35 -139 65
-141 66 -2 2 2 18 8 36 l12 33 -27 -27 -27 -27 -58 30 c-32 16 -78 42 -103 57
-45 29 -45 30 -26 47 11 10 31 36 44 59 26 46 79 186 72 193 -7 8 -149 -121
-185 -168 -18 -24 -37 -45 -41 -47 -5 -2 -32 21 -62 51 -33 33 -66 57 -86 62
l-32 7 25 32 c13 18 33 52 44 77 23 51 71 219 63 219 -15 0 -144 -167 -174
-224 l-20 -39 -24 39 -25 39 6 -63 6 -64 -98 7 c-54 4 -99 8 -101 10 -2 2 10
36 27 76 17 40 29 74 27 76 -3 3 -20 -36 -87 -195 -16 -39 -21 -42 -46 -37
-27 5 -27 5 -5 -6 12 -7 22 -17 22 -22 0 -26 -44 -127 -55 -127 -32 0 -259 60
-265 70 -10 16 -24 174 -21 235 6 125 5 172 -2 203 l-9 32 54 1 c38 0 47 3 33
9 -16 6 -12 9 20 11 l40 4 -67 23 c-47 16 -68 29 -68 40 0 15 -2 15 -10 2 -12
-19 -26 -5 -33 38 -5 21 -3 32 6 33 6 1 26 3 43 5 18 1 41 7 52 13 10 6 44 10
74 10 66 -1 96 13 201 93 49 38 83 57 95 54 9 -3 43 -12 76 -22 l58 -16 -89
-92 c-151 -155 -151 -154 -36 -91 55 30 103 55 106 55 4 0 -7 -19 -23 -43 -15
-23 -47 -79 -71 -122 l-42 -80 65 63 c35 34 67 59 71 56 4 -4 7 -2 7 4 0 6 25
40 56 74 31 35 64 79 74 99 10 19 37 48 59 63 41 29 91 86 91 105 0 6 5 11 11
11 7 0 8 -11 4 -31 -10 -44 -8 -128 5 -185 12 -53 77 -223 91 -238 21 -23 1
327 -23 380 -7 16 -23 43 -35 60 -13 17 -23 36 -23 43 0 7 -10 21 -21 30 -16
13 -27 45 -44 125 l-23 107 24 -22 c13 -12 24 -26 24 -31 0 -5 14 -21 30 -35
17 -13 30 -31 30 -38 0 -22 50 -74 89 -94 40 -21 343 -123 348 -118 5 5 -237
172 -306 211 -35 20 -75 39 -90 43 -14 3 -34 12 -44 18 -16 11 -16 13 -2 19 9
3 31 6 48 7 79 2 162 59 322 219 l110 111 -75 -34 c-164 -75 -361 -178 -394
-207 -19 -17 -38 -40 -41 -51 -12 -38 -20 -18 -20 54 0 84 -17 134 -88 257
-65 114 -70 118 -62 45 9 -82 34 -223 46 -262 13 -41 1 -153 -16 -153 -7 0
-23 20 -35 45 -38 78 -134 141 -300 194 -52 17 -97 31 -99 31 -21 0 361 -358
412 -386 10 -6 16 -27 18 -57 4 -61 -18 -79 -61 -53 -16 9 -48 16 -73 16 -25
0 -47 5 -49 11 -3 9 -10 9 -23 2 -11 -6 -77 -14 -147 -18 -71 -4 -128 -10
-128 -14 0 -4 25 -14 56 -22 l56 -14 -97 -49 c-54 -27 -115 -64 -137 -83 -44
-37 -64 -42 -53 -15 40 93 43 108 35 160 -5 28 -30 116 -57 193 -51 152 -60
156 -62 32 -1 -55 -3 -63 -20 -63 -24 0 -31 19 -31 80 0 39 4 52 22 64 l22 16
-27 0 -27 0 0 119 c0 121 5 155 21 145 5 -3 6 9 3 25 -5 23 4 49 37 115 24 47
50 88 56 91 7 2 90 -14 184 -35 95 -22 175 -40 178 -40 6 1 -304 166 -322 173
-5 1 -1 20 9 40 19 40 20 40 89 20 11 -3 17 -3 14 1 -8 9 -282 185 -294 189
-6 2 5 39 24 83 19 43 41 97 51 119 9 22 41 69 71 105 30 36 73 87 94 114 46
56 43 56 -88 -25 -69 -43 -77 -46 -72 -26 6 17 -2 13 -37 -20 -24 -24 -47 -43
-50 -43 -13 0 -18 61 -28 335 -6 154 -13 315 -16 358 -3 42 -4 77 -1 77 2 0
37 -14 78 -31 91 -39 333 -129 336 -125 5 5 -288 228 -342 260 -78 48 -86 56
-83 84 2 20 13 28 53 41 56 19 119 60 215 140 95 80 230 204 226 208 -1 2 -23
-5 -47 -16 -160 -69 -449 -191 -452 -191 -2 0 -7 87 -10 193 -4 105 -11 284
-17 397 -5 113 -12 255 -15 315 -3 61 -12 268 -20 460 -13 322 -28 634 -40
860 -7 117 -23 455 -35 720 -16 373 -30 629 -36 683 l-5 52 -120 0 -119 0 0
-222 c0 -123 5 -457 10 -743 5 -286 12 -725 15 -975 3 -250 10 -747 15 -1105
5 -357 7 -651 5 -653 -2 -2 -27 14 -57 36 -29 22 -73 50 -98 62 -42 21 -244
100 -256 100 -10 0 179 -203 299 -320 l117 -116 0 -83 c0 -75 -2 -82 -17 -76
-10 4 -44 9 -75 12 -36 4 -55 10 -51 16 4 7 0 7 -13 1 -10 -4 -92 -10 -181
-12 -90 -2 -163 -7 -163 -11 0 -4 27 -16 60 -26 71 -21 80 -30 42 -40 -44 -11
-214 -95 -253 -126 -37 -29 -59 -37 -59 -20 0 5 12 34 26 66 40 88 31 152 -64
455 l-27 85 -7 -63 c-4 -35 -14 -146 -22 -245 -17 -196 -13 -239 24 -289 12
-16 19 -32 16 -35 -8 -9 -53 17 -87 48 -17 15 -30 22 -32 15 -13 -33 -27 25
-41 169 -20 190 -26 234 -56 382 l-23 113 24 22 c13 13 30 35 38 51 8 15 26
34 40 44 65 42 82 89 91 253 5 74 7 136 5 138 -1 1 -30 -54 -63 -123 -60 -122
-93 -214 -97 -265 -4 -46 -5 -50 -13 -50 -5 0 -16 6 -27 13 -15 11 -19 33 -24
123 -5 83 -12 120 -29 155 -27 56 -54 192 -50 251 l3 43 20 -22 c11 -13 23
-23 27 -23 15 0 -1 166 -21 218 -12 29 -21 57 -21 61 0 5 16 11 36 13 32 4 37
1 48 -26 18 -42 56 -80 103 -104 53 -27 413 -147 413 -137 0 2 -66 50 -147
108 -135 95 -258 172 -307 190 -18 7 -17 10 10 38 16 17 45 38 64 46 51 24
412 394 384 393 -5 0 -61 -29 -124 -64 -63 -35 -117 -62 -119 -60 -2 2 2 10 9
19 25 30 -4 14 -59 -34 -31 -27 -85 -66 -121 -87 -72 -42 -147 -114 -156 -150
-11 -44 -23 -25 -17 29 4 34 13 61 28 77 45 50 76 112 100 203 22 81 25 112
24 257 l0 165 -19 -40 c-182 -387 -189 -399 -200 -369 -25 67 -35 92 -66 149
-37 70 -40 89 -54 415 -6 124 -13 266 -15 315 -21 367 -26 483 -31 735 -7 312
-10 286 60 542 l23 87 -137 0 -136 1 -13 -287z m12 -1745 c10 -220 9 -261 -5
-252 -8 5 -9 2 -3 -12 5 -10 11 -43 13 -72 5 -63 14 -64 -122 20 -43 27 -80
47 -81 46 -2 -2 37 -59 86 -128 49 -69 89 -128 89 -132 0 -5 -14 -8 -31 -8
-25 0 -61 22 -158 94 -69 51 -149 108 -177 125 -29 17 -54 40 -57 51 -3 11 -2
20 2 20 4 0 69 -50 145 -111 77 -61 136 -103 132 -93 -19 50 -136 243 -171
283 -74 85 -72 78 -35 116 28 29 41 35 75 35 78 0 224 13 220 19 -2 4 -45 20
-95 36 -87 28 -90 30 -73 47 14 13 170 58 234 67 3 1 9 -67 12 -151z m-283 82
c-20 -13 -33 -13 -25 0 3 6 14 10 23 10 15 0 15 -2 2 -10z m-318 -192 c5 -15
-29 -119 -44 -133 -7 -7 -9 -3 -5 15 4 14 11 49 17 78 11 50 24 66 32 40z m76
-129 c7 -12 11 -23 9 -26 -3 -2 -29 -3 -58 -1 l-54 3 35 22 c43 28 52 28 68 2z
m-80 -105 c48 -47 58 -51 255 -119 139 -48 165 -60 155 -72 -15 -18 -139 -14
-146 5 -2 6 3 12 12 12 8 0 18 5 22 11 5 8 -1 10 -20 7 -19 -4 -33 2 -53 21
l-26 26 7 -27 c6 -28 6 -28 -46 -30 -101 -3 -138 -6 -162 -12 -24 -6 -24 -5
-19 52 5 51 -2 95 -22 145 -11 26 2 21 43 -19z m224 -236 l4 -33 11 25 11 25
10 -25 c16 -42 24 -70 19 -70 -3 0 -39 17 -82 39 l-77 38 39 16 c54 23 61 21
65 -15z m126 -14 c6 -4 -18 -44 -27 -44 -7 0 -31 43 -31 56 0 4 51 -6 58 -12z
m-53 -34 c17 -33 18 -40 7 -40 -5 0 -13 16 -19 35 -14 43 -9 45 12 5z m-122
-24 c54 -19 100 -36 102 -38 3 -2 -16 -44 -40 -93 -25 -49 -45 -95 -45 -103 0
-23 -183 158 -205 202 -17 35 -20 38 -23 19 -2 -13 -10 -23 -18 -23 -11 0 -13
6 -8 23 3 12 7 22 8 23 27 12 105 31 116 29 8 -3 59 -20 113 -39z m313 23 c26
-7 49 -20 55 -31 6 -11 9 -21 7 -22 -15 -11 -158 -42 -158 -34 0 5 5 29 11 54
12 48 17 50 85 33z m-611 -19 c3 -5 1 -10 -4 -10 -6 0 -11 5 -11 10 0 6 2 10
4 10 3 0 8 -4 11 -10z m726 -10 c5 0 9 -4 9 -10 0 -14 -13 -12 -36 6 -17 14
-17 15 -1 10 10 -3 23 -6 28 -6z m-735 -188 c1 -161 15 -232 59 -302 14 -22
25 -44 25 -49 0 -5 -43 -11 -95 -13 -85 -3 -95 -1 -95 15 0 44 71 452 86 496
12 36 19 -13 20 -147z m94 41 c0 -30 -10 -23 -28 20 -11 26 -11 27 8 17 12 -7
20 -21 20 -37z m437 7 c-23 -20 -33 -25 -35 -15 -6 27 16 53 42 48 l24 -5 -31
-28z m223 -18 c0 -13 -23 -32 -39 -32 -11 0 -10 4 4 20 19 21 35 26 35 12z
m-441 -147 c-1 -45 -35 -145 -49 -145 -3 0 -7 15 -8 33 -3 36 -25 123 -47 180
-8 20 -15 40 -15 43 0 3 27 -9 60 -28 l60 -33 -1 -50z m791 43 c0 -9 4 -8 11
2 8 11 9 8 4 -15 -3 -16 -1 -54 5 -84 5 -30 8 -56 6 -59 -8 -8 -36 57 -36 83
0 15 -5 35 -10 46 -11 20 -6 39 11 39 5 0 9 -6 9 -12z m-2133 -114 c-2 -2 -13
-1 -25 3 -18 4 -20 8 -10 20 10 13 14 13 25 -3 7 -10 12 -19 10 -20z m1705
-46 c-27 -40 -68 -106 -92 -146 l-43 -72 -31 23 c-48 37 -127 74 -173 82 -48
8 -58 25 -15 25 42 1 102 32 165 87 52 46 63 51 129 60 40 6 81 11 91 12 14 1
7 -15 -31 -71z m396 16 c29 -20 28 -34 -2 -34 -17 0 -25 7 -28 25 -6 29 -1 31
30 9z m52 -88 c0 -7 -7 -31 -16 -52 -10 -23 -17 -71 -18 -117 -1 -63 -4 -77
-16 -75 -12 3 -16 23 -18 96 -3 89 -2 95 25 127 30 36 43 43 43 21z m-370 -15
c0 -11 -190 -144 -197 -138 -4 5 177 146 190 147 4 0 7 -4 7 -9z m-459 -92
c24 -30 59 -56 104 -78 l69 -33 -25 -19 c-27 -21 -23 -24 17 -8 35 13 70 4 84
-21 5 -10 24 -79 40 -152 17 -73 33 -142 37 -153 4 -16 -1 -14 -28 11 -37 34
-122 90 -190 125 l-43 21 25 15 c23 13 22 14 -21 8 -32 -4 -64 0 -116 17 l-72
23 -1 69 c0 72 6 97 19 76 5 -8 11 -1 18 19 7 18 7 29 2 26 -6 -4 -10 -14 -10
-23 0 -12 -3 -13 -12 -4 -9 9 -9 23 1 60 12 43 16 62 20 102 2 16 8 10 82 -81z
m-165 -13 c22 -23 17 -26 -43 -26 -32 0 -87 -9 -123 -20 -76 -23 -93 -25 -88
-7 3 6 51 24 109 38 126 32 127 33 145 15z m624 -67 c0 -17 -5 -20 -25 -17
-14 3 -25 1 -25 -3 0 -5 7 -9 15 -9 9 0 18 -6 21 -14 6 -15 -51 -136 -64 -136
-8 1 -65 80 -56 80 3 0 14 -5 25 -10 14 -8 19 -7 19 1 0 6 7 8 18 5 9 -4 -3
13 -27 38 -25 25 -43 47 -40 49 6 5 111 35 127 36 6 1 12 -9 12 -20z m-638
-79 c-15 -27 -31 -50 -35 -50 -5 0 4 22 20 50 15 27 31 50 35 50 5 0 -4 -22
-20 -50z m-187 -66 c-22 -29 -30 -52 -35 -106 -3 -40 -11 -73 -19 -77 -7 -5
-12 -11 -11 -15 2 -12 -18 -41 -24 -35 -4 3 -1 63 5 132 l12 126 41 4 c23 2
45 4 50 5 4 1 -4 -14 -19 -34z m790 -21 c-18 -42 -25 -52 -25 -34 0 14 28 71
35 71 3 0 -2 -17 -10 -37z m21 -31 c-19 -20 -20 -7 -4 39 l13 34 3 -29 c2 -17
-3 -35 -12 -44z m-684 -5 c-22 -58 -28 -64 -63 -74 l-38 -10 38 46 c21 25 46
58 56 74 30 46 33 30 7 -36z m1038 9 c0 -2 -3 -11 -6 -20 -9 -23 -24 -20 -24
4 0 11 7 20 15 20 8 0 15 -2 15 -4z m30 -26 c0 -11 0 -23 1 -27 0 -4 -4 -9
-10 -11 -6 -2 -11 10 -11 27 0 17 5 31 10 31 6 0 10 -9 10 -20z m95 10 c-3 -5
-11 -10 -16 -10 -6 0 -7 5 -4 10 3 6 11 10 16 10 6 0 7 -4 4 -10z m-1051 -6
c20 -8 11 -24 -14 -24 -13 0 -17 5 -14 15 7 17 7 17 28 9z m591 -54 c0 -22 -1
-40 -3 -40 -4 0 -42 65 -42 73 0 4 10 7 23 7 19 0 22 -5 22 -40z m499 -177
c14 -104 32 -244 39 -312 l13 -123 -59 6 c-33 3 -82 6 -108 6 -60 0 -63 15
-19 87 50 81 71 179 77 348 2 83 6 156 8 163 12 37 24 -7 49 -175z m-959 115
c21 -24 48 -54 59 -67 l21 -23 -45 22 c-38 19 -43 20 -30 5 8 -10 10 -16 5
-14 -6 2 -43 17 -83 33 -39 16 -72 32 -72 36 0 7 80 48 96 49 6 1 28 -18 49
-41z m816 -55 l-20 -38 -1 32 c0 20 6 36 17 42 26 14 27 7 4 -36z m-1141 -43
c0 -5 -8 -10 -17 -10 -15 0 -16 2 -3 10 19 12 20 12 20 0z m-612 -35 c18 -39
16 -42 -40 -49 -29 -4 -73 -9 -97 -13 -32 -4 -42 -3 -37 6 8 13 134 80 152 81
6 0 16 -11 22 -25z m487 15 c3 -5 2 -10 -4 -10 -5 0 -13 5 -16 10 -3 6 -2 10
4 10 5 0 13 -4 16 -10z m185 -68 c0 -15 2 -15 10 -2 10 16 6 17 205 -45 66
-21 155 -45 199 -54 l79 -16 18 -47 c10 -27 17 -48 14 -48 -2 0 -61 25 -131
55 -108 47 -124 51 -104 30 22 -23 22 -25 4 -31 -63 -23 -172 -67 -202 -83
l-36 -18 -38 75 c-20 42 -36 85 -34 96 2 12 1 15 -1 9 -7 -22 -18 -15 -41 26
-25 43 -27 62 -11 78 16 16 69 -4 69 -25z m-598 -144 c25 -68 44 -125 42 -127
-7 -7 -121 44 -187 85 -37 23 -80 45 -95 49 -25 6 -17 12 78 60 58 30 108 54
111 54 3 1 26 -54 51 -121z m398 100 c0 -7 9 -21 19 -32 22 -24 94 -230 93
-266 0 -13 -11 -47 -25 -75 -45 -91 -54 -141 -19 -112 12 10 14 9 9 -8 -3 -11
-13 -65 -23 -120 -11 -63 -28 -122 -47 -159 -28 -56 -29 -62 -23 -148 5 -71 4
-89 -6 -86 -10 4 -13 80 -13 369 1 391 12 662 26 653 5 -3 9 -10 9 -16z m605
-199 c39 -39 92 -86 118 -106 l48 -35 -48 -33 c-26 -18 -74 -56 -106 -84 -36
-32 -65 -50 -75 -47 -10 3 -56 12 -104 22 -49 9 -88 19 -88 23 1 3 23 31 50
61 27 30 47 56 46 58 -2 2 -46 -20 -98 -48 -88 -47 -126 -59 -141 -44 -3 3 20
28 51 54 31 26 102 93 157 149 55 56 104 101 110 101 6 0 42 -32 80 -71z
m-464 6 c-9 -30 -9 -30 -10 10 -1 25 2 36 9 29 6 -6 6 -21 1 -39z m58 -12 l33
-28 -49 -35 c-26 -19 -51 -36 -54 -38 -4 -2 1 27 9 63 9 36 19 65 22 65 3 0
21 -12 39 -27z m704 -22 c17 -7 27 -18 27 -31 0 -38 -38 -15 -76 47 -18 28
-18 28 1 11 11 -9 32 -21 48 -27z m-1763 -63 c0 -26 -2 -29 -15 -18 -8 7 -15
26 -15 42 0 26 2 29 15 18 8 -7 15 -26 15 -42z m310 32 c52 -5 124 -17 159
-27 l65 -18 33 -105 c18 -58 33 -112 33 -120 0 -8 -38 -39 -84 -68 -47 -29
-107 -73 -134 -97 -44 -40 -72 -55 -72 -40 0 2 15 34 32 70 19 39 37 64 45 61
7 -3 10 1 7 9 -3 8 9 40 27 71 l32 57 -46 -31 c-25 -18 -48 -32 -50 -32 -3 0
-22 30 -43 68 -20 37 -59 100 -86 141 -26 41 -48 76 -48 78 0 3 8 2 17 -2 10
-3 61 -10 113 -15z m2767 -7 c46 -15 83 -30 83 -34 0 -4 -58 -63 -129 -130
-72 -68 -129 -125 -127 -126 2 -2 55 21 119 52 64 30 119 55 123 55 3 0 -7
-17 -24 -37 -30 -40 -78 -115 -127 -198 l-29 -50 53 45 c124 106 121 109 42
-49 -63 -124 -75 -142 -92 -138 -19 5 -20 4 -5 -12 14 -15 11 -25 -32 -112
-45 -90 -48 -94 -77 -91 -29 3 -29 3 -10 -12 20 -15 20 -15 -5 -17 l-25 -1 25
-7 c14 -5 24 -14 22 -22 -2 -8 -29 -76 -60 -151 -41 -101 -62 -140 -77 -144
-11 -3 -33 -11 -50 -17 l-30 -12 44 -5 c41 -5 44 -6 28 -21 -9 -9 -14 -19 -11
-21 7 -8 -77 -232 -92 -244 -7 -6 -11 -14 -7 -17 3 -4 -20 -93 -53 -199 -44
-143 -63 -192 -77 -196 -15 -4 -15 -6 -3 -16 12 -9 12 -18 -3 -66 -13 -44 -21
-56 -40 -58 l-24 -4 7 259 c11 421 14 830 7 951 -3 62 -2 117 3 122 5 5 10 24
11 43 1 21 13 48 28 66 14 18 29 48 33 67 7 36 0 128 -12 171 -6 22 -5 22 62
18 66 -5 67 -4 39 9 l-30 14 50 4 50 3 -78 29 -79 29 7 34 c10 56 24 85 36 77
6 -3 15 -1 19 6 5 9 36 13 92 14 98 2 152 24 263 110 39 30 72 55 74 55 3 1
42 -11 88 -26z m-3361 -19 c-3 -9 -6 -18 -6 -21 0 -3 -7 0 -15 7 -13 11 -13
15 -3 21 21 13 31 10 24 -7z m82 -64 c-9 -32 -13 -38 -24 -29 -11 9 -10 16 7
40 11 16 22 29 24 29 1 0 -2 -18 -7 -40z m251 -202 c12 -57 25 -114 28 -128 2
-14 -23 29 -56 95 l-61 120 6 -70 c3 -38 7 -86 10 -105 4 -29 1 -25 -20 24
-14 32 -39 77 -57 99 -31 39 -32 40 -15 66 9 14 24 41 33 59 l17 32 46 -45
c42 -42 47 -51 69 -147z m2158 148 c43 -13 90 -27 106 -30 18 -4 27 -13 27
-26 0 -18 -4 -18 -82 10 -46 16 -95 31 -110 35 -16 3 -28 12 -28 20 0 19 -5
19 87 -9z m-2022 -76 c37 -62 44 -83 36 -97 -8 -15 -15 -6 -46 57 -20 41 -33
64 -29 50 4 -14 15 -42 26 -63 27 -54 17 -67 -15 -19 -21 33 -26 51 -25 96 1
31 3 56 4 56 1 0 23 -36 49 -80z m1603 -67 l-3 -128 -39 -3 c-24 -2 -35 -7
-27 -11 8 -5 -11 -22 -58 -50 -39 -23 -73 -40 -77 -39 -3 2 -23 -31 -44 -72
l-37 -74 -17 57 c-9 31 -34 92 -56 134 -22 42 -39 78 -37 79 2 2 21 -1 42 -7
41 -12 146 -8 179 6 17 7 18 5 13 -16 -6 -23 -5 -23 8 -4 8 11 19 25 25 32 13
15 13 36 1 28 -5 -3 -22 6 -37 20 -15 14 -32 25 -38 25 -6 1 14 14 44 29 30
16 63 38 74 50 10 11 24 18 30 14 6 -3 8 -3 4 1 -7 8 30 56 44 56 5 0 7 -57 6
-127z m719 100 c-18 -88 -45 -102 -66 -34 -15 51 -15 49 17 54 55 8 55 8 49
-20z m-1441 -8 c2 -5 -19 -26 -46 -45 -49 -35 -80 -82 -80 -123 0 -20 -20 -63
-20 -43 0 4 7 47 16 95 16 87 16 87 57 108 44 22 68 25 73 8z m2204 -42 c0
-35 -1 -36 -15 -17 -17 23 -19 12 -5 -36 11 -39 34 -279 27 -286 -2 -3 -35 34
-73 80 -37 47 -70 84 -72 82 -1 -2 17 -57 41 -122 42 -114 49 -146 24 -114 -7
8 -27 24 -46 34 l-35 19 24 -39 c13 -21 27 -43 32 -48 9 -11 11 -46 3 -46 -12
0 -175 96 -175 103 0 4 34 76 76 160 60 120 88 164 132 210 31 31 58 57 59 57
2 0 3 -17 3 -37z m-2953 -46 c6 -10 -22 -37 -39 -37 -4 0 -8 13 -8 29 0 24 3
28 20 24 11 -3 23 -10 27 -16z m921 -30 c47 -31 72 -55 72 -67 0 -36 32 -145
55 -186 l22 -42 -84 55 c-143 94 -197 116 -275 117 -37 1 -68 4 -68 9 0 4 0
11 0 16 0 5 12 14 28 19 15 5 59 37 97 70 39 34 72 60 75 59 3 -1 38 -24 78
-50z m-1048 -28 c0 7 4 10 9 7 10 -6 3 -46 -8 -46 -4 0 -17 8 -31 17 l-24 17
22 -36 22 -36 -35 -51 c-32 -48 -35 -50 -40 -29 -3 13 -1 62 4 108 6 47 11 89
11 94 0 6 16 -5 35 -24 19 -19 35 -28 35 -21z m474 -166 c26 -109 50 -205 52
-214 3 -12 -9 -18 -48 -27 -52 -13 -67 -7 -68 24 0 6 -23 34 -50 63 l-50 53
22 18 c23 18 23 18 -24 13 -70 -8 -70 9 -1 114 73 109 105 153 113 153 3 0 28
-89 54 -197z m1689 148 c4 -4 10 -77 13 -162 l6 -154 -21 25 c-11 14 -19 30
-17 35 1 6 -3 15 -11 20 -13 10 -16 29 -13 114 1 35 -6 54 -29 88 -17 24 -31
45 -31 47 0 6 95 -6 103 -13z m-161 -127 c26 -35 45 -64 43 -64 -2 0 -23 9
-48 19 -43 18 -45 22 -49 65 -2 25 -1 46 2 45 3 0 26 -29 52 -65z m-1175 -56
c26 -14 138 -51 248 -83 110 -32 201 -59 203 -61 2 -1 -4 -13 -12 -26 -9 -14
-13 -27 -10 -31 8 -8 -16 -68 -25 -62 -7 4 -50 -91 -70 -155 -18 -57 -105
-250 -113 -250 -5 0 -8 33 -8 73 0 51 -8 93 -25 142 -14 39 -25 73 -25 76 0 4
30 10 67 14 110 12 114 19 21 39 -127 27 -141 36 -179 105 -19 34 -36 61 -40
61 -3 0 -3 -21 2 -47 4 -27 5 -50 4 -52 -7 -6 -120 36 -120 45 1 5 4 45 9 89
6 68 5 90 -12 138 -10 31 -17 59 -14 61 2 3 15 -7 27 -23 13 -15 45 -38 72
-53z m783 22 c0 -9 -32 -30 -46 -30 -4 0 1 9 11 20 19 21 35 26 35 10z m0 -94
c0 -42 -4 -66 -12 -69 -113 -45 -114 -45 -136 -33 -22 12 -21 14 55 89 43 42
81 77 86 77 4 0 7 -29 7 -64z m-345 -34 c-3 -3 -11 0 -18 7 -9 10 -8 11 6 5
10 -3 15 -9 12 -12z m1605 -104 c0 -7 -101 1 -109 8 -2 2 4 22 14 45 l19 41
38 -43 c20 -24 38 -47 38 -51z m-820 32 c17 -9 18 -14 8 -35 -15 -34 -23 -31
-35 10 -12 37 -6 43 27 25z m-1890 -10 c10 -5 31 -42 46 -81 l28 -72 -34 -28
c-19 -16 -37 -29 -40 -29 -3 0 -22 42 -43 93 l-36 92 20 18 c24 20 33 21 59 7z
m1845 -33 c32 -55 32 -80 -2 -123 -19 -26 -28 -32 -34 -22 -10 15 -12 172 -2
181 10 11 10 10 38 -36z m185 24 c0 -12 -20 -25 -27 -18 -7 7 6 27 18 27 5 0
9 -4 9 -9z m-1842 -71 c57 -13 69 -30 22 -30 -16 0 -50 -7 -76 -16 -25 -8 -47
-14 -49 -12 -4 4 -45 107 -45 114 0 2 21 -6 48 -19 26 -14 71 -30 100 -37z
m-381 3 c-21 -22 -31 -11 -23 23 7 25 8 26 24 11 15 -16 15 -18 -1 -34z m1413
38 c0 -5 8 -11 18 -15 9 -3 60 -23 112 -44 90 -36 95 -39 95 -67 0 -23 -6 -32
-26 -39 -22 -7 -34 -4 -70 21 -74 51 -123 71 -187 79 -34 3 -62 10 -62 15 0 9
86 55 108 58 6 0 12 -3 12 -8z m230 -1 c0 -5 -4 -10 -9 -10 -6 0 -13 5 -16 10
-3 6 1 10 9 10 9 0 16 -4 16 -10z m1211 -21 c32 -18 59 -36 59 -40 0 -13 -145
-17 -157 -5 -7 7 20 76 30 76 5 0 36 -14 68 -31z m-2767 -88 c36 -43 66 -85
66 -92 -1 -8 -9 -4 -22 11 l-21 25 6 -31 c5 -24 1 -36 -13 -49 -18 -16 -20
-14 -64 74 -25 50 -46 97 -46 104 0 11 18 37 26 37 1 0 32 -36 68 -79z m-60
-60 l50 -100 -25 -21 -24 -21 31 6 c26 5 32 2 43 -22 11 -23 10 -29 -5 -40
-25 -18 -44 -16 -45 5 0 11 -4 8 -10 -10 -8 -20 -19 -28 -50 -33 -21 -4 -49
-15 -61 -25 -21 -16 -23 -16 -35 -1 -11 14 -12 12 -13 -16 0 -30 -31 -73 -52
-73 -5 0 -21 -11 -36 -25 -33 -31 -42 -31 -42 -2 0 22 -76 179 -112 230 -11
16 -19 29 -17 31 2 2 47 25 100 53 121 63 206 119 226 149 8 13 18 22 22 20 3
-2 28 -49 55 -105z m1297 5 c-20 -24 -27 -20 -40 22 -7 20 -15 44 -18 52 -3 8
12 -2 33 -22 32 -31 36 -39 25 -52z m908 -166 c0 -80 -4 -237 -9 -350 -5 -113
-12 -296 -16 -407 -6 -190 -8 -203 -25 -203 -17 0 -18 5 -12 58 15 109 10 165
-19 228 -21 43 -33 95 -46 197 -17 123 -16 157 3 127 12 -19 26 0 15 20 -5 10
-10 28 -10 40 0 12 -11 45 -24 73 -39 83 -40 106 -10 172 14 33 37 90 49 126
12 36 38 86 56 110 l34 45 7 -46 c3 -25 7 -110 7 -190z m598 172 c35 -20 59
-39 55 -43 -4 -4 -38 -17 -77 -30 -65 -22 -68 -24 -35 -27 19 -1 55 -5 79 -8
l44 -6 -73 -40 c-74 -41 -210 -93 -210 -80 0 4 25 69 57 145 65 156 54 150
160 89z m-1918 -22 c13 0 20 -13 28 -55 5 -30 8 -55 5 -55 -8 0 -141 95 -142
102 0 8 58 16 78 11 8 -1 22 -3 31 -3z m728 -27 c-3 -3 -11 -2 -17 2 -8 5 -7
11 2 22 12 15 13 14 16 -1 2 -10 1 -20 -1 -23z m-217 8 c23 -10 38 -21 33 -24
-28 -17 -113 -45 -113 -37 0 9 32 80 36 80 1 0 21 -8 44 -19z m-630 -116 c112
-149 117 -154 182 -185 32 -15 55 -29 53 -32 -3 -3 -29 -3 -58 0 -47 4 -58 10
-112 61 -33 31 -78 70 -100 88 -36 28 -38 32 -25 49 14 16 13 17 -5 10 -37
-14 -40 -11 -43 43 -3 57 3 85 17 79 4 -2 45 -52 91 -113z m-340 76 c0 -11 3
-26 6 -35 5 -13 -1 -16 -28 -16 -47 0 -51 7 -20 41 32 34 42 36 42 10z m725
-87 c-38 -50 -42 -35 -9 33 26 54 28 56 32 30 2 -19 -5 -39 -23 -63z m-951 51
c-13 -20 -20 -23 -30 -14 -17 14 -8 32 12 25 8 -3 14 -1 14 4 0 6 5 10 10 10
6 0 3 -11 -6 -25z m1419 -192 c4 -97 5 -179 2 -183 -2 -3 -44 -12 -92 -20 -48
-7 -95 -16 -104 -21 -12 -6 -27 1 -55 25 -60 50 -189 134 -217 141 -28 7 -54
32 -44 41 3 3 23 8 44 11 34 4 41 2 50 -18 9 -18 12 -20 12 -7 1 10 19 27 43
39 54 28 127 82 203 151 l60 55 46 -19 46 -19 6 -176z m396 145 c-1 -37 -2
-39 -9 -18 -12 36 -12 60 0 60 6 0 10 -19 9 -42z m1627 7 c38 -10 71 -19 73
-21 8 -7 -42 -54 -57 -54 -18 0 -112 57 -129 78 -17 21 -6 33 21 23 12 -5 54
-17 92 -26z m-3522 3 c8 -32 -12 -48 -30 -24 -19 27 -18 46 5 46 11 0 21 -9
25 -22z m1889 -118 c6 -41 6 -43 -8 -26 -8 11 -15 34 -15 52 0 17 -2 47 -5 65
-5 32 -4 32 9 -6 7 -22 16 -60 19 -85z m-1659 34 c3 -8 2 -12 -4 -9 -6 3 -10
10 -10 16 0 14 7 11 14 -7z m-54 -13 c0 -5 -3 -23 -6 -41 l-7 -32 -13 23 c-8
16 -9 30 -3 41 10 19 29 25 29 9z m2656 -43 c-9 -13 -59 -87 -112 -166 -65
-97 -100 -140 -108 -134 -6 4 -30 23 -53 41 -24 18 -43 30 -43 27 0 -3 16 -34
36 -70 31 -57 34 -68 23 -88 -11 -21 -11 -22 4 -9 15 12 21 5 53 -63 20 -42
34 -79 32 -81 -5 -6 -6 -5 -197 139 -72 54 -131 103 -131 109 0 9 20 68 77
223 l14 41 102 21 c56 13 140 24 187 25 47 2 96 4 109 5 23 2 23 1 7 -20z
m-2883 -67 c-25 -35 -28 -37 -31 -18 -3 13 5 28 18 39 37 30 43 20 13 -21z
m3469 7 c-7 -7 -12 -8 -12 -2 0 14 12 26 19 19 2 -3 -1 -11 -7 -17z m-3311
-10 c72 -55 84 -67 77 -74 -5 -4 -32 12 -60 36 l-53 42 54 -53 53 -53 -8 -50
c-14 -82 -33 -71 -77 43 -32 84 -39 131 -20 131 3 0 18 -10 34 -22z m590 -2
c29 -12 31 -16 16 -22 -13 -4 -26 0 -40 15 -25 25 -21 26 24 7z m-854 -13 c-3
-10 -8 -30 -11 -45 -4 -16 -10 -28 -14 -28 -16 1 -39 27 -45 52 -6 24 -4 27
20 31 53 8 54 7 50 -10z m1149 -39 c-3 -7 12 -30 32 -51 43 -44 62 -57 114
-81 44 -20 46 -25 16 -40 -13 -7 -33 -19 -45 -28 -20 -15 -22 -14 -38 13 -9
15 -13 19 -9 8 3 -11 7 -28 8 -38 2 -10 7 -22 13 -25 5 -4 18 -20 27 -37 l16
-30 -6 28 c-6 28 4 35 24 15 13 -13 192 -17 235 -5 l29 8 -17 -29 c-46 -78
-41 -76 -146 -62 -61 8 -98 18 -106 28 -8 10 -13 11 -13 4 0 -7 -16 -12 -41
-12 -32 0 -63 12 -130 51 -49 28 -89 55 -89 60 0 6 -4 8 -8 5 -4 -2 -14 -1
-22 4 -22 14 66 240 100 257 22 11 27 10 43 -9 10 -12 16 -27 13 -34z m-912
-55 c33 -84 37 -102 25 -110 -31 -20 -45 -11 -41 27 3 24 -5 56 -23 99 -24 58
-26 85 -7 85 4 0 25 -45 46 -101z m326 86 c0 -8 -4 -15 -10 -15 -5 0 -10 7
-10 15 0 8 5 15 10 15 6 0 10 -7 10 -15z m-422 -107 c-4 -32 -4 -32 -14 12
-12 48 -14 46 -37 -35 l-15 -50 -1 67 c-1 68 -1 68 32 81 31 13 32 13 35 -15
2 -15 2 -43 0 -60z m586 86 c24 -9 19 -21 -14 -33 -26 -9 -30 -8 -30 8 0 29
14 37 44 25z m316 2 c0 -5 -71 -189 -77 -198 -2 -5 -18 -1 -35 8 -33 17 -32 8
3 -31 18 -20 17 -24 -22 -135 -22 -63 -44 -119 -50 -125 -6 -6 -25 6 -52 31
-23 22 -61 55 -84 73 -40 31 -43 36 -43 82 l0 49 65 -25 c36 -13 65 -23 65
-21 0 2 -25 22 -56 46 l-55 42 36 44 c41 49 40 53 -7 24 -41 -25 -48 -25 -48
-1 0 16 11 22 58 31 31 7 73 15 92 19 28 6 47 2 94 -22 l60 -29 -27 32 c-34
40 -34 45 2 60 16 6 37 20 47 31 15 17 34 25 34 15z m-1210 -25 c0 -10 7 -34
15 -54 17 -40 12 -47 -27 -47 -27 0 -29 2 -24 30 3 17 9 44 12 60 6 33 24 41
24 11z m2259 -164 c7 -51 14 -103 17 -117 4 -18 2 -22 -6 -14 -6 6 -14 33 -19
61 -4 27 -17 66 -29 85 -12 20 -22 47 -22 60 0 21 4 24 24 21 21 -4 24 -12 35
-96z m961 18 c0 -15 -26 -32 -36 -23 -2 3 -2 13 2 22 8 20 34 21 34 1z m-50 0
c0 -3 -12 -29 -26 -57 -19 -38 -28 -48 -35 -37 -15 23 -10 45 16 73 22 23 45
34 45 21z m-2840 -36 c0 -6 -4 -7 -10 -4 -5 3 -10 11 -10 16 0 6 5 7 10 4 6
-3 10 -11 10 -16z m426 3 c8 -5 4 -13 -12 -25 -22 -17 -24 -17 -33 2 -6 10 -7
21 -4 25 8 8 35 7 49 -2z m2434 -8 c0 -3 -11 -20 -24 -37 -36 -50 -42 -65 -17
-43 l22 20 -9 -24 c-11 -29 -27 -36 -36 -15 -7 20 34 105 51 105 7 0 13 -3 13
-6z m-167 -23 c4 -17 2 -18 -13 -8 -10 6 -16 15 -14 19 9 14 22 9 27 -11z
m-2333 -10 c0 -10 -12 -26 -26 -36 -26 -16 -26 -16 -19 7 14 45 45 66 45 29z
m1998 -32 c18 -28 32 -53 29 -55 -2 -2 -18 1 -36 7 -18 6 -34 9 -37 6 -3 -2
29 -30 69 -61 51 -39 83 -72 101 -106 26 -48 26 -49 7 -59 -12 -7 -36 -8 -65
-2 -25 4 -47 5 -48 0 -3 -10 -156 -34 -164 -26 -9 9 94 347 105 347 3 0 21
-23 39 -51z m-2533 21 c10 -11 16 -20 13 -20 -3 0 -13 9 -23 20 -10 11 -16 20
-13 20 3 0 13 -9 23 -20z m3054 -81 c-13 -10 -25 -16 -27 -15 -1 2 5 29 15 61
l18 57 8 -43 c8 -38 6 -44 -14 -60z m-2088 -8 c-17 -33 -33 -61 -36 -61 -2 0
5 26 16 58 30 90 29 86 40 75 7 -7 1 -29 -20 -72z m697 -126 c-7 -7 -35 -25
-63 -41 l-50 -28 27 32 c17 21 40 74 60 140 l33 107 3 -99 c2 -72 -1 -103 -10
-111z m-620 135 c17 -21 32 -43 32 -49 0 -16 -48 -44 -65 -38 -8 4 -18 0 -22
-7 -9 -15 -46 -36 -62 -36 -6 0 8 38 31 85 23 47 45 85 48 85 3 0 20 -18 38
-40z m-625 23 c2 -5 7 -20 11 -35 6 -26 4 -28 -23 -28 -36 0 -48 26 -25 51 18
20 30 24 37 12z m1662 -23 c18 -19 17 -20 -3 -20 -15 0 -22 6 -22 20 0 11 2
20 3 20 2 0 12 -9 22 -20z m1065 -14 c0 -8 -9 -24 -20 -37 l-20 -24 10 29 c17
47 30 61 30 32z m-2790 -16 c0 -5 -5 -10 -11 -10 -5 0 -7 5 -4 10 3 6 8 10 11
10 2 0 4 -4 4 -10z m230 -21 c0 -5 -7 -9 -15 -9 -15 0 -20 12 -9 23 8 8 24 -1
24 -14z m2499 -34 c1 -30 0 -55 -3 -55 -10 0 -57 91 -51 100 3 6 16 10 29 10
20 0 23 -5 25 -55z m-2864 35 c-3 -5 -10 -10 -16 -10 -5 0 -9 5 -9 10 0 6 7
10 16 10 8 0 12 -4 9 -10z m1905 -14 c0 -2 -10 -25 -21 -51 -25 -57 -37 -191
-21 -247 6 -23 7 -40 1 -44 -5 -3 -9 -4 -10 -2 0 2 -4 68 -8 148 l-9 145 26
28 c23 24 42 35 42 23z m-630 -11 c0 -2 -11 -28 -24 -57 -13 -29 -28 -66 -33
-83 -5 -16 -12 -29 -17 -28 -9 2 -66 126 -66 143 0 4 24 12 53 17 63 12 87 15
87 8z m-851 -52 c0 -31 -2 -34 -9 -18 -12 28 -12 55 0 55 6 0 10 -17 9 -37z
m-32 -15 c6 -24 10 -44 9 -46 -2 -1 -15 3 -30 9 -20 10 -26 19 -26 46 0 25 4
33 18 33 13 0 21 -13 29 -42z m-57 8 c0 -21 -5 -24 -61 -30 -66 -8 -75 -5 -66
18 7 16 55 34 100 35 22 1 27 -3 27 -23z m629 -73 l95 -98 -40 -11 -39 -11
-33 61 c-23 43 -49 73 -87 101 -30 22 -55 43 -55 48 0 4 15 7 33 7 28 0 45
-13 126 -97z m-955 68 c3 -5 15 -7 26 -4 13 4 26 -1 35 -13 21 -28 18 -35 -12
-28 -29 7 -86 54 -66 54 7 0 14 -4 17 -9z m161 -1 c3 -5 1 -10 -4 -10 -6 0
-11 5 -11 10 0 6 2 10 4 10 3 0 8 -4 11 -10z m381 -21 c30 -17 54 -32 54 -35
0 -7 -52 -84 -57 -84 -3 0 -18 8 -34 17 -27 16 -29 22 -29 75 0 32 3 58 6 58
4 0 31 -14 60 -31z m249 -109 c10 -19 29 -50 44 -69 23 -30 24 -34 8 -45 -9
-6 -59 -38 -112 -71 -52 -33 -95 -63 -95 -66 0 -6 129 22 233 52 48 13 48 13
72 -16 13 -17 23 -34 22 -39 -4 -14 -247 -176 -247 -165 0 6 -43 -13 -95 -41
-52 -28 -95 -49 -95 -45 0 3 5 16 11 28 l12 22 -25 -22 c-29 -28 -38 -29 -38
-5 0 18 96 352 104 359 2 2 29 -3 61 -12 31 -9 59 -15 61 -12 3 3 -15 19 -40
37 -25 17 -46 35 -46 40 0 6 16 28 36 50 l37 40 36 -21 36 -21 -29 30 c-29 32
-29 38 1 122 3 8 11 -10 17 -40 7 -30 20 -71 31 -90z m-567 -61 c18 -57 58
-204 89 -327 l56 -223 -44 -40 c-24 -21 -46 -39 -50 -39 -4 0 -10 16 -13 35
-4 19 -35 91 -71 160 l-63 126 15 47 c8 26 17 53 19 61 3 10 18 1 50 -30 l46
-44 -41 68 c-57 94 -55 132 4 85 l28 -22 -21 40 c-26 50 -64 216 -48 211 6 -2
26 -50 44 -108z m-117 88 c-1 -12 -15 -9 -19 4 -3 6 1 10 8 8 6 -3 11 -8 11
-12z m1169 9 c0 -2 -7 -7 -16 -10 -8 -3 -12 -2 -9 4 6 10 25 14 25 6z m168
-143 l-3 -137 -45 -10 -45 -10 47 -10 c56 -11 54 -6 63 -226 l6 -145 -56 140
c-31 77 -60 158 -65 180 -16 74 -56 171 -68 167 -11 -3 -16 11 -26 73 -2 17
-7 39 -11 50 -6 19 2 23 77 42 46 11 93 21 106 22 l23 1 -3 -137z m-1117 65
c10 -3 49 -389 48 -468 0 -14 -18 43 -40 125 -22 83 -55 201 -74 264 -19 63
-35 117 -35 121 0 4 20 -3 45 -16 25 -12 50 -24 56 -26z m-432 13 c20 -15 69
-49 109 -75 40 -25 74 -52 77 -59 11 -35 15 -138 6 -132 -15 9 -13 -13 9 -125
18 -94 18 -96 -2 -178 l-21 -83 -19 31 c-10 17 -15 37 -12 43 4 7 3 9 -1 4 -8
-7 -99 202 -91 210 2 2 27 -28 56 -67 29 -39 54 -69 57 -67 4 5 -106 266 -147
347 -16 31 -40 71 -54 87 -20 24 -25 37 -20 62 4 17 9 31 11 31 3 0 22 -13 42
-29z m2331 9 c89 -22 85 -19 56 -49 -14 -15 -31 -41 -37 -59 -9 -25 -15 -31
-28 -26 -9 4 -36 14 -59 22 -42 15 -43 16 -37 50 11 61 24 84 43 78 9 -3 37
-10 62 -16z m-2503 -12 c-3 -8 -6 -5 -6 6 -1 11 2 17 5 13 3 -3 4 -12 1 -19z
m3696 -100 c-4 -115 -3 -126 20 -170 16 -32 20 -48 12 -48 -31 0 -39 31 -56
198 -8 87 -8 116 1 128 7 7 16 14 20 14 4 0 5 -55 3 -122z m-3005 67 c2 -2 4
-114 5 -250 3 -316 -12 -337 -37 -53 -9 112 -20 229 -23 261 l-6 58 29 -7 c16
-4 30 -8 32 -9z m3860 -46 c-26 -17 -40 -11 -28 12 9 16 14 18 26 8 12 -10 12
-14 2 -20z m-3130 -1 c7 -7 31 -21 54 -33 23 -11 42 -24 42 -30 1 -5 -34 -13
-76 -17 -43 -4 -86 -12 -97 -18 -30 -16 -38 -12 -50 20 -9 28 -8 32 17 42 15
7 38 20 51 30 28 21 42 23 59 6z m-578 -10 c0 -2 -18 -58 -39 -126 l-38 -124
-6 94 -7 93 38 32 c31 28 53 40 52 31z m2048 -14 c23 -16 29 -43 13 -59 -5 -6
-26 -49 -47 -97 -20 -49 -40 -88 -43 -88 -3 0 -24 15 -46 34 l-39 33 29 74
c44 111 81 139 133 103z m-118 -28 c0 -2 -14 -33 -30 -70 l-31 -67 -34 21
c-18 11 -57 23 -85 27 -50 6 -81 23 -41 23 11 0 22 4 25 9 3 4 27 11 53 15 27
4 66 15 88 25 40 20 55 24 55 17z m300 -72 c0 -19 -10 -18 -26 4 -7 9 -14 12
-14 6 0 -6 7 -17 15 -24 22 -18 -4 -61 -58 -99 -24 -16 -49 -36 -56 -45 -18
-21 -32 -20 -25 2 3 10 -4 5 -19 -12 -17 -19 -27 -24 -32 -16 -7 12 8 31 129
157 46 48 63 60 73 51 7 -6 13 -17 13 -24z m20 -39 c0 -8 -9 -19 -20 -25 -23
-12 -25 -7 -10 21 13 22 30 25 30 4z m121 -114 c22 -18 24 -28 28 -136 l3
-118 -41 7 c-134 21 -133 21 -38 -29 71 -38 87 -51 87 -70 0 -13 3 -30 6 -39
4 -11 -2 -19 -21 -26 -41 -15 -75 19 -75 74 -1 36 -2 39 -14 23 -13 -16 -14
-16 -38 2 -13 11 -46 26 -73 34 -34 10 -51 20 -53 33 -6 30 -22 41 -22 16 0
-22 -1 -22 -30 -7 -33 17 -35 23 -18 60 12 27 21 28 75 8 13 -4 10 2 -11 25
-16 17 -25 35 -21 42 4 7 44 29 89 50 44 21 90 45 101 54 26 20 38 20 66 -3z
m-997 -7 c18 -18 21 -89 6 -129 -8 -22 -13 -24 -29 -15 -28 14 -36 12 -21 -5
10 -12 10 -19 1 -28 -19 -19 -31 10 -31 74 0 31 -3 71 -6 88 -6 30 -5 31 29
31 20 0 43 -7 51 -16z m330 -61 c38 -42 33 -53 -22 -51 -32 1 -34 3 -28 31 3
16 6 36 6 43 0 21 7 17 44 -23z m226 -27 c0 -9 7 -12 20 -9 23 6 27 -9 6 -26
-10 -9 -17 -6 -30 13 -19 29 -20 36 -6 36 6 0 10 -6 10 -14z m135 -46 c10 -16
-23 -70 -40 -64 -16 7 -18 17 -9 52 6 22 38 31 49 12z m-335 -90 c0 -5 -5 -10
-11 -10 -5 0 -7 5 -4 10 3 6 8 10 11 10 2 0 4 -4 4 -10z m21 -17 c-12 -20 -14
-14 -5 12 4 9 9 14 11 11 3 -2 0 -13 -6 -23z m77 -78 c-11 -19 -21 -35 -21
-35 -1 0 0 26 2 57 l3 58 18 -23 c18 -22 18 -24 -2 -57z m-2194 20 c41 -40 45
-47 36 -70 -6 -15 -10 -48 -10 -75 0 -28 -5 -52 -13 -57 -6 -4 -18 -20 -26
-36 -9 -16 -18 -24 -24 -18 -7 7 -17 301 -10 301 0 0 22 -20 47 -45z m2463
-92 c2 -6 3 -21 1 -33 -3 -19 -7 -16 -35 24 -18 26 -33 49 -33 52 0 9 62 -30
67 -43z m-2267 7 c0 -21 -8 -24 -34 -14 -13 5 -14 9 -5 20 17 21 39 17 39 -6z
m2104 -6 c4 -9 -16 -65 -46 -130 -61 -134 -78 -143 -92 -50 -11 66 -17 55 89
144 l40 34 -48 -34 c-26 -18 -56 -39 -67 -47 -17 -12 -20 -11 -20 3 0 15 104
93 126 95 7 1 15 -6 18 -15z m-384 -20 c0 -14 -12 -19 -23 -8 -9 9 4 35 14 28
5 -3 9 -12 9 -20z m701 -10 c20 -5 25 -11 22 -25 -5 -17 -60 -56 -67 -47 -2 2
-8 23 -14 46 -10 42 -10 44 11 38 12 -4 34 -9 48 -12z m-876 -11 c10 -24 6
-166 -5 -177 -15 -15 -28 34 -30 110 -1 38 -2 72 -1 77 2 14 29 7 36 -10z
m609 8 c3 -5 -11 -41 -31 -81 -30 -59 -37 -83 -35 -122 l2 -48 -32 14 c-19 7
-32 19 -30 27 2 8 24 60 49 117 41 93 62 118 77 93z m-2210 -17 c9 -24 7 -28
-9 -14 -17 14 -20 30 -6 30 5 0 12 -7 15 -16z m-26 -16 c-3 -7 -13 -15 -24
-17 -16 -3 -17 -1 -5 13 16 19 34 21 29 4z m2346 -99 c-2 -39 -5 -73 -7 -75
-2 -3 -10 24 -17 58 -16 86 -23 91 -36 33 l-12 -50 -1 73 -1 72 39 -19 38 -20
-3 -72z m1286 56 c69 -35 94 -55 66 -55 -24 0 -171 21 -175 26 -6 6 21 64 30
64 5 0 41 -16 79 -35z m-970 -22 c0 -10 3 -35 6 -55 l7 -38 -37 0 c-41 0 -43
7 -18 67 17 43 42 58 42 26z m-963 -35 c-3 -7 -5 -2 -5 12 0 14 2 19 5 13 2
-7 2 -19 0 -25z m38 -8 c3 -5 -1 -10 -9 -10 -9 0 -16 5 -16 10 0 6 4 10 9 10
6 0 13 -4 16 -10z m1883 -54 l103 -53 -41 -17 c-23 -9 -65 -31 -93 -49 -52
-33 -165 -83 -171 -76 -2 2 5 28 16 57 13 34 25 52 36 52 13 0 14 2 3 9 -11 7
-9 20 9 70 13 33 25 61 29 61 3 -1 52 -25 109 -54z m-3768 -16 c0 -5 -2 -10
-4 -10 -3 0 -8 5 -11 10 -3 6 -1 10 4 10 6 0 11 -4 11 -10z m254 -10 c12 -12
-3 -32 -20 -26 -19 7 -18 -4 3 -19 20 -15 31 -92 32 -225 l0 -95 -52 100 c-29
55 -62 114 -73 130 -35 49 -33 69 11 115 32 33 45 40 65 35 14 -4 29 -10 34
-15z m2556 -39 c0 -46 -6 -52 -37 -40 -29 11 -30 43 -1 63 33 23 38 20 38 -23z
m-895 -1 c10 -11 16 -23 12 -26 -7 -7 -57 25 -57 37 0 16 26 9 45 -11z m489
-4 c-3 -9 -10 -16 -15 -16 -6 0 -5 9 1 21 13 24 24 20 14 -5z m1163 -77 c-19
-52 -28 -63 -62 -79 l-40 -18 34 -1 c23 -1 32 -5 28 -14 -3 -8 -20 -61 -37
-118 -18 -57 -36 -109 -41 -115 -5 -6 -7 -13 -4 -15 4 -4 -41 -168 -48 -176
-2 -2 -7 25 -11 59 -12 106 -25 228 -36 328 -5 52 -12 114 -16 137 -4 31 -2
44 8 48 10 3 120 15 230 24 16 1 16 -4 -5 -60z m-727 31 c0 -5 -5 -10 -11 -10
-5 0 -7 5 -4 10 3 6 8 10 11 10 2 0 4 -4 4 -10z m15 -182 c8 -56 1 -59 -52
-27 -19 12 -36 20 -38 17 -2 -2 18 -28 45 -58 27 -30 49 -58 50 -61 0 -4 -16
-10 -35 -13 -32 -6 -41 -2 -95 45 -48 41 -59 57 -55 73 5 17 4 18 -4 6 -6 -8
-11 -12 -11 -8 0 3 -3 15 -7 25 -3 10 -2 14 2 10 5 -4 16 7 25 25 9 18 21 32
27 31 6 -1 19 16 28 38 l19 40 47 -48 c39 -39 49 -57 54 -95z m1035 87 c0 -2
-22 -37 -48 -77 -27 -40 -66 -103 -86 -140 -21 -38 -40 -68 -43 -68 -2 0 -24
14 -49 30 -24 17 -44 29 -44 26 0 -3 14 -28 31 -56 18 -29 28 -57 25 -66 -4
-11 -2 -15 7 -11 9 3 25 -17 45 -59 18 -35 32 -67 32 -69 0 -15 -28 0 -72 40
-27 24 -87 68 -134 97 -46 29 -84 60 -83 68 0 8 15 62 32 120 l32 105 85 22
c47 12 112 23 145 23 33 1 71 6 85 10 32 10 40 11 40 5z m196 -63 c-15 -15
-16 -14 -16 14 0 16 6 36 13 43 10 10 13 7 15 -15 2 -15 -3 -34 -12 -42z m293
11 c-10 -11 -14 -11 -20 -1 -14 21 -10 26 11 21 16 -4 18 -8 9 -20z m-2459 3
c0 -8 -7 -16 -15 -20 -15 -5 -21 14 -8 27 11 12 23 8 23 -7z m-1650 -294 c0
-80 -2 -143 -5 -141 -2 3 -33 90 -69 195 -36 104 -68 198 -72 209 -5 11 26
-10 69 -49 l77 -68 0 -146z m4028 211 c-14 -17 -18 -13 -28 34 l-9 38 24 -30
c18 -22 21 -32 13 -42z m-2463 -8 c-21 -63 -32 -55 -19 13 4 19 11 29 19 26
10 -4 10 -12 0 -39z m73 -12 c-2 -30 -9 -41 -31 -51 -16 -8 -31 -11 -34 -8 -3
3 2 26 11 51 13 32 23 45 37 45 17 0 20 -6 17 -37z m135 0 c46 -23 28 -38 -51
-41 -76 -3 -78 -2 -66 46 6 21 11 23 48 16 22 -3 54 -13 69 -21z m2126 -24
c17 -28 31 -53 31 -55 0 -3 -14 -22 -31 -43 -16 -21 -41 -65 -55 -97 -21 -49
-24 -53 -20 -24 3 19 7 67 10 105 l6 70 -61 -120 c-33 -66 -58 -109 -56 -95 3
14 15 70 27 125 21 89 27 105 64 143 22 23 43 42 47 42 3 0 20 -23 38 -51z
m-231 -35 c1 -45 -4 -63 -25 -96 -32 -48 -42 -35 -15 19 11 21 22 49 26 63 4
14 -7 -4 -24 -39 -18 -39 -28 -72 -24 -84 5 -17 9 -16 40 14 19 18 34 29 34
23 0 -5 5 -47 11 -94 5 -46 7 -95 4 -108 -5 -21 -8 -19 -40 28 l-34 51 22 36
22 37 -25 -17 c-33 -23 -40 -22 -40 8 0 14 -4 25 -9 25 -25 0 -17 38 25 111
25 43 47 79 48 79 1 0 3 -25 4 -56z m-1629 14 c-5 -9 -26 -22 -47 -28 -51 -14
-54 -13 -42 11 13 23 37 34 73 34 21 0 23 -3 16 -17z m392 -14 c28 -14 49 -27
47 -29 -1 -1 -20 -8 -41 -13 -37 -10 -39 -9 -57 20 -17 28 -18 48 -4 48 3 0
27 -12 55 -26z m-604 -67 c-12 -32 -50 -173 -50 -187 0 -8 -10 -29 -23 -47
-33 -44 -30 -50 10 -19 43 33 46 32 46 -2 0 -18 -19 -55 -50 -99 -27 -39 -50
-75 -50 -79 0 -5 24 16 54 45 l54 54 12 -44 c6 -24 15 -58 20 -76 7 -27 2 -42
-42 -114 -62 -104 -106 -190 -128 -252 l-17 -48 -18 27 c-17 26 -36 138 -36
215 0 50 128 467 186 606 13 30 43 49 32 20z m1703 -32 l0 -35 -25 16 c-25 16
-29 39 -7 39 5 0 14 3 18 8 12 12 14 9 14 -28z m-1600 21 c0 -2 -7 -9 -15 -16
-12 -10 -15 -10 -15 4 0 9 7 16 15 16 8 0 15 -2 15 -4z m-178 -67 c-11 -24
-47 -129 -81 -234 -78 -239 -73 -229 -81 -171 -7 53 24 345 40 384 5 12 18 22
27 22 10 1 38 11 63 23 25 13 46 22 48 21 1 -1 -6 -21 -16 -45z m853 -16 c3
-32 7 -73 10 -91 3 -27 -1 -34 -25 -47 -16 -8 -31 -15 -34 -15 -11 0 -66 106
-66 127 0 16 14 32 48 53 26 16 50 30 54 30 4 0 9 -26 13 -57z m675 -74 c51
-74 79 -126 76 -136 -5 -11 -17 -14 -52 -11 -45 3 -45 3 -23 -15 l22 -17 -48
-48 c-26 -25 -52 -59 -57 -74 -9 -26 -38 -40 -38 -19 0 9 -15 126 -25 196 -5
32 44 245 56 245 4 0 44 -54 89 -121z m-1674 54 c-3 -10 -10 -63 -17 -118 -14
-115 -23 -107 -36 32 -9 97 -7 101 35 102 18 1 22 -3 18 -16z m556 -33 c16
-28 16 -31 -1 -51 l-18 -22 -47 28 c-26 15 -45 30 -42 32 19 19 73 50 81 47 5
-3 18 -18 27 -34z m48 0 c0 -10 -26 -20 -34 -13 -14 14 -5 31 14 26 11 -3 20
-9 20 -13z m133 -58 c16 -17 15 -23 -8 -80 -14 -34 -25 -70 -25 -81 0 -36 -18
-31 -34 9 -9 22 -16 48 -16 56 0 18 52 114 61 114 3 0 13 -8 22 -18z m-328
-42 c40 -41 40 -49 2 -29 -15 8 -9 -2 16 -28 20 -21 37 -42 37 -45 0 -3 -20
-48 -44 -100 -40 -83 -50 -97 -96 -126 -41 -27 -51 -30 -47 -15 3 10 13 54 22
98 9 44 19 89 22 100 l5 20 -17 -20 c-16 -19 -16 -19 -11 14 3 18 6 53 6 76 0
43 29 95 54 95 6 0 30 -18 51 -40z m619 -167 c4 -43 9 -97 12 -119 l6 -42
-104 -25 c-112 -27 -111 -28 21 -47 89 -13 101 -19 70 -36 l-24 -13 23 -1 c12
0 22 -6 22 -12 0 -7 4 -51 9 -98 6 -47 12 -143 16 -214 3 -72 8 -132 10 -135
3 -2 -2 -15 -10 -27 -13 -21 -13 -23 0 -18 12 5 15 -4 15 -47 -1 -54 -1 -54
-74 126 -40 99 -95 232 -123 295 -28 63 -54 126 -58 140 -13 48 -59 149 -66
145 -9 -6 -33 54 -25 62 3 4 -1 17 -10 31 -8 13 -14 25 -12 26 2 1 35 12 73
23 l70 21 62 -60 62 -61 -21 67 c-15 51 -18 70 -9 79 9 9 16 9 31 -1 16 -10
18 -9 14 3 -4 8 -2 15 4 15 5 0 13 -35 16 -77z m-269 37 c-3 -5 -12 -10 -18
-10 -7 0 -6 4 3 10 19 12 23 12 15 0z m-200 -70 c-5 -9 -45 -21 -45 -13 0 2 5
13 11 24 8 16 13 18 25 9 7 -7 12 -16 9 -20z m1344 -27 l22 -18 -37 -90 c-20
-49 -38 -92 -40 -94 -7 -7 -74 44 -74 57 0 24 50 137 67 150 23 16 37 15 62
-5z m-1214 -50 c30 -15 55 -30 55 -34 0 -4 -26 -10 -57 -14 -72 -8 -140 -39
-221 -99 -34 -25 -64 -46 -66 -46 -3 0 9 31 25 68 30 66 32 69 85 87 30 10 69
29 87 41 18 13 33 23 34 24 2 0 27 -12 58 -27z m1094 -25 c-28 -70 -27 -70
-53 -53 -13 9 -47 18 -75 22 -28 3 -51 9 -51 13 0 4 30 15 68 25 37 9 78 23
92 30 39 22 41 18 19 -37z m279 14 c4 -24 -7 -29 -25 -11 -14 14 -5 41 11 36
6 -2 12 -13 14 -25z m-18 -38 c0 -8 -16 -46 -35 -84 -19 -38 -35 -73 -34 -77
0 -5 20 32 45 81 l46 89 24 -30 c28 -37 116 -94 234 -153 47 -23 87 -44 89
-46 2 -1 -6 -15 -17 -31 -36 -51 -112 -208 -112 -230 0 -29 -9 -29 -42 2 -15
14 -32 25 -38 25 -21 0 -50 41 -50 73 -1 28 -2 30 -13 16 -12 -15 -14 -15 -35
1 -12 10 -40 21 -61 25 -31 5 -42 13 -50 33 -6 18 -10 21 -10 10 -1 -21 -20
-23 -45 -5 -15 11 -16 17 -5 40 11 24 17 27 43 22 l31 -6 -23 18 c-16 13 -21
25 -17 38 6 16 5 17 -3 5 -9 -12 -14 -12 -31 4 -15 13 -19 27 -15 50 4 29 4
29 -7 9 -13 -24 -29 -31 -29 -12 0 6 30 47 66 90 53 64 69 77 80 68 8 -6 14
-18 14 -25z m-1620 -33 c0 -5 -12 -35 -26 -67 -24 -53 -83 -124 -103 -124 -9
0 -31 98 -31 136 0 14 8 24 23 28 40 11 49 8 37 -13 -20 -39 -9 -41 22 -4 18
21 37 41 43 45 14 11 35 10 35 -1z m1230 -187 c0 -3 -16 -4 -35 -2 -31 2 -35
5 -35 28 0 15 3 30 6 33 6 6 64 -49 64 -59z m160 26 c0 -5 6 -7 14 -4 20 7 29
-11 12 -25 -10 -9 -17 -6 -30 14 -9 14 -12 25 -6 25 5 0 10 -4 10 -10z m120
-43 c0 -7 -6 -22 -14 -33 -18 -24 -38 -8 -30 24 7 24 44 32 44 9z m-1737 -168
c-2 -89 -8 -170 -14 -181 -10 -18 -11 -18 -30 6 -11 14 -17 30 -14 36 3 5 0
10 -8 10 -17 0 -31 57 -22 93 4 14 2 42 -4 63 -11 39 -11 39 42 86 28 26 52
47 53 48 1 0 -1 -73 -3 -161z m117 137 c0 -3 -4 -8 -10 -11 -5 -3 -10 -1 -10
4 0 6 5 11 10 11 6 0 10 -2 10 -4z m1351 -69 c-10 -9 -11 -8 -5 6 3 10 9 15
12 12 3 -3 0 -11 -7 -18z m78 -15 c6 -12 5 -25 -5 -42 -7 -14 -13 -20 -14 -14
0 6 -3 26 -6 43 -7 34 9 43 25 13z m209 -80 c15 -12 23 -26 20 -40 -3 -18 -6
-16 -31 19 -30 42 -26 49 11 21z m-132 -18 c-3 -8 -2 -12 4 -9 15 10 13 -2
-27 -107 -44 -113 -63 -124 -77 -42 l-8 51 48 48 c44 43 45 44 6 11 -23 -20
-47 -36 -52 -36 -18 0 -10 19 16 37 14 10 37 28 52 40 32 26 46 29 38 7z m287
-14 c32 0 -2 -78 -35 -80 -4 0 -10 12 -14 28 -3 15 -8 36 -11 46 -4 16 -1 18
18 13 13 -4 32 -7 42 -7z m-237 -11 c3 -6 -6 -40 -21 -75 -18 -42 -26 -76 -23
-99 4 -37 -10 -45 -41 -26 -12 8 -8 26 25 110 38 100 46 112 60 90z m101 -116
l1 -68 -14 50 c-24 81 -26 83 -36 41 -13 -59 -18 -56 -18 12 l0 61 33 -14 c31
-13 32 -15 34 -82z m267 57 c3 -16 9 -43 12 -60 5 -28 3 -30 -24 -30 -39 0
-44 7 -27 47 8 20 15 44 15 54 0 30 18 22 24 -11z m-2037 -92 c-3 -8 -6 -5 -6
6 -1 11 2 17 5 13 3 -3 4 -12 1 -19z m-25 -70 c-7 -7 -12 -8 -12 -2 0 6 3 14
7 17 3 4 9 5 12 2 2 -3 -1 -11 -7 -17z m1719 -11 c-10 -9 -11 -8 -5 6 3 10 9
15 12 12 3 -3 0 -11 -7 -18z m189 -30 c0 -2 -10 -12 -22 -23 l-23 -19 19 23
c18 21 26 27 26 19z m-406 -86 c20 -22 11 -51 -15 -51 -15 0 -19 7 -19 35 0
39 9 44 34 16z m41 -41 c3 -5 1 -10 -4 -10 -6 0 -11 5 -11 10 0 6 2 10 4 10 3
0 8 -4 11 -10z m140 -20 c3 -5 2 -10 -4 -10 -5 0 -13 5 -16 10 -3 6 -2 10 4
10 5 0 13 -4 16 -10z m-175 -90 c0 -5 -5 -10 -11 -10 -5 0 -7 5 -4 10 3 6 8
10 11 10 2 0 4 -4 4 -10z m150 -14 c-25 -25 -80 -45 -80 -30 1 22 30 46 50 41
11 -3 23 -1 26 4 3 5 10 9 17 9 6 0 0 -11 -13 -24z m-99 -99 c-13 -13 -26 -3
-16 12 3 6 11 8 17 5 6 -4 6 -10 -1 -17z m252 -49 c3 -23 -1 -39 -13 -53 -10
-11 -31 -45 -48 -75 -36 -64 -164 -361 -159 -367 2 -2 28 28 57 67 30 38 55
68 56 67 8 -8 -81 -215 -89 -210 -6 3 -7 2 -4 -4 4 -6 -2 -26 -12 -45 l-18
-35 -20 86 c-21 85 -21 87 -3 181 22 112 24 134 9 125 -9 -6 -5 96 6 132 2 6
49 41 104 77 55 37 103 71 106 76 12 19 23 10 28 -22z m124 0 c-3 -8 -6 -5 -6
6 -1 11 2 17 5 13 3 -3 4 -12 1 -19z"/>
<path d="M1801 8874 c0 -11 3 -14 6 -6 3 7 2 16 -1 19 -3 4 -6 -2 -5 -13z"/>
<path d="M2010 7304 c0 -6 7 -19 15 -30 8 -10 14 -14 14 -9 0 6 -6 19 -14 29
-8 11 -15 15 -15 10z"/>
<path d="M2051 7225 c0 -5 6 -21 14 -35 8 -14 14 -20 14 -15 0 6 -6 21 -14 35
-8 14 -14 21 -14 15z"/>
<path d="M2141 7074 c0 -11 3 -14 6 -6 3 7 2 16 -1 19 -3 4 -6 -2 -5 -13z"/>
<path d="M3966 5373 c-6 -14 -5 -15 5 -6 7 7 10 15 7 18 -3 3 -9 -2 -12 -12z"/>
<path d="M1751 10244 c0 -11 3 -14 6 -6 3 7 2 16 -1 19 -3 4 -6 -2 -5 -13z"/>
<path d="M1511 9434 c0 -11 3 -14 6 -6 3 7 2 16 -1 19 -3 4 -6 -2 -5 -13z"/>
<path d="M3011 9414 c0 -11 3 -14 6 -6 3 7 2 16 -1 19 -3 4 -6 -2 -5 -13z"/>
<path d="M3023 9345 c0 -22 2 -30 4 -17 2 12 2 30 0 40 -3 9 -5 -1 -4 -23z"/>
<path d="M991 9315 c0 -5 8 -26 19 -45 11 -19 19 -30 19 -25 0 6 -8 26 -19 45
-11 19 -19 31 -19 25z"/>
<path d="M4581 6254 c0 -11 3 -14 6 -6 3 7 2 16 -1 19 -3 4 -6 -2 -5 -13z"/>
<path d="M5087 6105 c-24 -50 -20 -58 4 -12 11 22 19 41 17 43 -3 2 -12 -12
-21 -31z"/>
<path d="M5046 6015 c-9 -26 -7 -32 5 -12 6 10 9 21 6 23 -2 3 -7 -2 -11 -11z"/>
</g>
</svg>
